<svg width="1920" height="1689" viewBox="0 0 1920 1689" fill="none" xmlns="http://www.w3.org/2000/svg">
<path opacity="0.3" d="M524.68 529.5C535.398 548.064 535.398 570.936 524.68 589.5L362.071 871.147C351.353 889.711 331.545 901.147 310.109 901.147L-15.1087 901.147C-36.5447 901.147 -56.3523 889.711 -67.0702 871.147L-229.679 589.5C-240.397 570.936 -240.397 548.064 -229.679 529.5L-67.0702 247.853C-56.3522 229.289 -36.5446 217.853 -15.1087 217.853L310.109 217.853C331.545 217.853 351.353 229.289 362.071 247.853L524.68 529.5Z" fill="#FFC09F"/>
<path opacity="0.3" d="M1978.68 849C1989.4 867.564 1989.4 890.436 1978.68 909L1910.32 1027.4C1899.6 1045.97 1879.8 1057.4 1858.36 1057.4L1721.64 1057.4C1700.21 1057.4 1680.4 1045.97 1669.68 1027.4L1601.32 909C1590.6 890.436 1590.6 867.564 1601.32 849L1669.68 730.599C1680.4 712.035 1700.21 700.599 1721.64 700.599L1858.36 700.599C1879.8 700.599 1899.6 712.035 1910.32 730.599L1978.68 849Z" fill="#FFDF74"/>
<path opacity="0.3" d="M1063.13 -14C1081 16.9401 1081 55.0599 1063.13 86L1017.87 164.401C1000 195.341 966.992 214.401 931.265 214.401L840.736 214.401C805.009 214.401 771.996 195.341 754.133 164.401L708.868 86C691.005 55.0599 691.005 16.9401 708.868 -14L754.133 -92.4012C771.996 -123.341 805.009 -142.401 840.736 -142.401L931.265 -142.401C966.992 -142.401 1000 -123.341 1017.87 -92.4012L1063.13 -14Z" fill="#D7FFA4"/>
<g filter="url(#filter0_b_4_2)">
<rect width="1920" height="1103" rx="24.5221" fill="url(#paint0_linear_4_2)" fill-opacity="0.6"/>
<rect x="1" y="1" width="1918" height="1101" rx="23.5221" stroke="url(#paint1_linear_4_2)" stroke-opacity="0.6" stroke-width="2"/>
<rect x="1" y="1" width="1918" height="1101" rx="23.5221" stroke="url(#paint2_linear_4_2)" stroke-width="2"/>
</g>
<path d="M436.699 -0.258057C684.552 10.6211 467.209 229.052 656.603 355.75C830.171 471.86 1130.41 212.694 1170.72 578.44C1198.32 828.846 1279.14 921.862 1484.47 975.572" stroke="#F2F2F2" stroke-width="1.75246"/>
<path d="M447.922 -13.717C695.775 -2.83785 478.432 215.593 667.826 342.291C841.395 458.401 1141.63 199.235 1181.94 564.981C1209.54 815.387 1290.37 908.403 1495.69 962.113" stroke="#F2F2F2" stroke-width="1.75246"/>
<path d="M459.146 -27.176C706.999 -16.2968 489.656 202.134 679.05 328.832C852.618 444.942 1152.85 185.776 1193.17 551.522C1220.77 801.928 1301.59 894.944 1506.92 948.654" stroke="#F2F2F2" stroke-width="1.75246"/>
<path d="M470.369 -40.635C718.222 -29.7558 500.879 188.676 690.273 315.373C863.842 431.483 1164.08 172.317 1204.39 538.063C1231.99 788.469 1312.81 881.485 1518.14 935.195" stroke="#F2F2F2" stroke-width="1.75246"/>
<path d="M481.593 -54.094C729.446 -43.2148 512.103 175.217 701.497 301.914C875.065 418.024 1175.3 158.858 1215.61 524.604C1243.22 775.01 1324.04 868.026 1529.36 921.736" stroke="#F2F2F2" stroke-width="1.75246"/>
<path d="M492.816 -67.553C740.669 -56.6738 523.326 161.758 712.72 288.455C886.289 404.565 1186.52 145.399 1226.84 511.145C1254.44 761.551 1335.26 854.567 1540.59 908.277" stroke="#F2F2F2" stroke-width="1.75246"/>
<path d="M504.04 -81.0122C751.893 -70.133 534.55 148.298 723.944 274.995C897.512 391.106 1197.75 131.94 1238.06 497.685C1265.66 748.091 1346.49 841.108 1551.81 894.818" stroke="#F2F2F2" stroke-width="1.75246"/>
<path d="M515.263 -94.4712C763.117 -83.592 545.774 134.839 735.167 261.536C908.736 377.647 1208.97 118.481 1249.29 484.226C1276.89 734.632 1357.71 827.649 1563.03 881.359" stroke="#F2F2F2" stroke-width="1.75246"/>
<path d="M526.487 -107.93C774.34 -97.051 556.997 121.38 746.391 248.077C919.96 364.188 1220.2 105.022 1260.51 470.767C1288.11 721.174 1368.93 814.19 1574.26 867.9" stroke="#F2F2F2" stroke-width="1.75246"/>
<path d="M537.711 -121.389C785.564 -110.51 568.221 107.921 757.615 234.618C931.183 350.729 1231.42 91.563 1271.73 457.308C1299.33 707.714 1380.16 800.731 1585.48 854.441" stroke="#F2F2F2" stroke-width="1.75246"/>
<path d="M548.934 -134.848C796.787 -123.969 579.444 94.4624 768.838 221.16C942.407 337.27 1242.64 78.1042 1282.96 443.85C1310.56 694.256 1391.38 787.272 1596.7 840.982" stroke="#F2F2F2" stroke-width="1.75246"/>
<path d="M560.158 -148.307C808.011 -137.428 590.668 81.0031 780.062 207.7C953.63 323.811 1253.87 64.645 1294.18 430.39C1321.78 680.796 1402.6 773.813 1607.93 827.523" stroke="#F2F2F2" stroke-width="1.75246"/>
<path d="M571.381 -161.766C819.234 -150.887 601.891 67.5442 791.285 194.241C964.854 310.352 1265.09 51.186 1305.4 416.931C1333 667.337 1413.83 760.354 1619.15 814.064" stroke="#F2F2F2" stroke-width="1.75246"/>
<path d="M582.605 -175.225C830.458 -164.346 613.115 54.0852 802.509 180.782C976.077 296.893 1276.31 37.727 1316.63 403.472C1344.23 653.878 1425.05 746.895 1630.37 800.605" stroke="#F2F2F2" stroke-width="1.75246"/>
<path d="M593.828 -188.684C841.681 -177.805 624.338 40.6262 813.732 167.323C987.301 283.434 1287.54 24.2681 1327.85 390.013C1355.45 640.419 1436.27 733.436 1641.6 787.146" stroke="#F2F2F2" stroke-width="1.75246"/>
<path d="M605.052 -202.143C852.905 -191.264 635.562 27.1672 824.956 153.864C998.524 269.975 1298.76 10.8091 1339.07 376.554C1366.67 626.96 1447.5 719.977 1652.82 773.687" stroke="#F2F2F2" stroke-width="1.75246"/>
<path d="M616.275 -215.602C864.128 -204.723 646.785 13.7082 836.179 140.405C1009.75 256.516 1309.98 -2.64991 1350.3 363.095C1377.9 613.501 1458.72 706.518 1664.04 760.228" stroke="#F2F2F2" stroke-width="1.75246"/>
<path d="M627.499 -229.061C875.352 -218.182 658.009 0.249241 847.403 126.946C1020.97 243.057 1321.21 -16.1089 1361.52 349.636C1389.12 600.042 1469.94 693.059 1675.27 746.769" stroke="#F2F2F2" stroke-width="1.75246"/>
<path d="M638.723 -242.521C886.576 -231.641 669.233 -13.21 858.626 113.487C1032.2 229.598 1332.43 -29.5681 1372.74 336.177C1400.35 586.583 1481.17 679.6 1686.49 733.31" stroke="#F2F2F2" stroke-width="1.75246"/>
<path d="M649.946 -255.979C897.799 -245.1 680.456 -26.669 869.85 100.028C1043.42 216.139 1343.65 -43.0271 1383.97 322.718C1411.57 573.124 1492.39 666.141 1697.72 719.851" stroke="#F2F2F2" stroke-width="1.75246"/>
<defs>
<filter id="filter0_b_4_2" x="-100" y="-100" width="2120" height="1303" filterUnits="userSpaceOnUse" color-interpolation-filters="sRGB">
<feFlood flood-opacity="0" result="BackgroundImageFix"/>
<feGaussianBlur in="BackgroundImage" stdDeviation="50"/>
<feComposite in2="SourceAlpha" operator="in" result="effect1_backgroundBlur_4_2"/>
<feBlend mode="normal" in="SourceGraphic" in2="effect1_backgroundBlur_4_2" result="shape"/>
</filter>
<linearGradient id="paint0_linear_4_2" x1="960" y1="0" x2="1853.18" y2="1154.69" gradientUnits="userSpaceOnUse">
<stop stop-color="white" stop-opacity="0.2"/>
<stop offset="1" stop-color="white" stop-opacity="0"/>
</linearGradient>
<linearGradient id="paint1_linear_4_2" x1="2288.18" y1="440.943" x2="1633.86" y2="477.092" gradientUnits="userSpaceOnUse">
<stop stop-color="white"/>
<stop offset="1" stop-color="#EFEFEF" stop-opacity="0"/>
</linearGradient>
<linearGradient id="paint2_linear_4_2" x1="0" y1="0" x2="536.87" y2="496.752" gradientUnits="userSpaceOnUse">
<stop stop-color="white" stop-opacity="0.5"/>
<stop offset="1" stop-color="white" stop-opacity="0"/>
</linearGradient>
</defs>
</svg>
