<svg width="1920" height="287" viewBox="0 0 1920 287" fill="none" xmlns="http://www.w3.org/2000/svg">
<rect width="1920" height="287" fill="#F5F5F5"/>
<g clip-path="url(#clip0_0_1)">
<rect width="1920" height="5767" transform="translate(0 -3848)" fill="white"/>
<rect width="1920" height="287" fill="#FFBC0F"/>
<g opacity="0.2">
<path d="M763.316 -55.8115C1011.17 -44.9323 793.826 173.499 983.22 300.196C1156.79 416.307 1457.02 157.141 1497.34 522.886C1524.94 773.292 1605.76 866.309 1811.09 920.019" stroke="#F2F2F2" stroke-width="1.75246"/>
<path d="M774.54 -69.2704C1022.39 -58.3913 805.05 160.04 994.443 286.737C1168.01 402.848 1468.25 143.682 1508.56 509.427C1536.16 759.833 1616.99 852.85 1822.31 906.56" stroke="#F2F2F2" stroke-width="1.75246"/>
<path d="M785.763 -82.7295C1033.62 -71.8503 816.273 146.581 1005.67 273.278C1179.24 389.389 1479.47 130.223 1519.79 495.968C1547.39 746.374 1628.21 839.391 1833.53 893.101" stroke="#F2F2F2" stroke-width="1.75246"/>
<path d="M796.987 -96.1885C1044.84 -85.3093 827.497 133.122 1016.89 259.819C1190.46 375.93 1490.7 116.764 1531.01 482.509C1558.61 732.915 1639.43 825.932 1844.76 879.642" stroke="#F2F2F2" stroke-width="1.75246"/>
<path d="M808.21 -109.648C1056.06 -98.7683 838.72 119.663 1028.11 246.36C1201.68 362.471 1501.92 103.305 1542.23 469.05C1569.83 719.456 1650.66 812.473 1855.98 866.183" stroke="#F2F2F2" stroke-width="1.75246"/>
<path d="M819.434 -123.107C1067.29 -112.227 849.944 106.204 1039.34 232.901C1212.91 349.012 1513.14 89.8459 1553.46 455.591C1581.06 705.997 1661.88 799.014 1867.2 852.724" stroke="#F2F2F2" stroke-width="1.75246"/>
<path d="M830.657 -136.566C1078.51 -125.686 861.167 92.7449 1050.56 219.442C1224.13 335.553 1524.37 76.3868 1564.68 442.132C1592.28 692.538 1673.1 785.555 1878.43 839.264" stroke="#F2F2F2" stroke-width="1.75246"/>
<path d="M841.881 -150.025C1089.73 -139.145 872.391 79.2859 1061.78 205.983C1235.35 322.094 1535.59 62.9277 1575.9 428.673C1603.5 679.079 1684.33 772.096 1889.65 825.805" stroke="#F2F2F2" stroke-width="1.75246"/>
<path d="M853.104 -163.484C1100.96 -152.604 883.614 65.8269 1073.01 192.524C1246.58 308.635 1546.81 49.4687 1587.13 415.214C1614.73 665.62 1695.55 758.637 1900.87 812.346" stroke="#F2F2F2" stroke-width="1.75246"/>
<path d="M864.328 -176.943C1112.18 -166.064 894.838 52.3678 1084.23 179.065C1257.8 295.176 1558.04 36.0096 1598.35 401.755C1625.95 652.161 1706.77 745.178 1912.1 798.887" stroke="#F2F2F2" stroke-width="1.75246"/>
<path d="M875.551 -190.402C1123.4 -179.523 906.061 38.9088 1095.46 165.606C1269.02 281.717 1569.26 22.5507 1609.57 388.296C1637.17 638.702 1718 731.719 1923.32 785.428" stroke="#F2F2F2" stroke-width="1.75246"/>
<path d="M886.775 -203.861C1134.63 -192.982 917.285 25.4497 1106.68 152.147C1280.25 268.258 1580.48 9.09155 1620.8 374.837C1648.4 625.243 1729.22 718.259 1934.54 771.969" stroke="#F2F2F2" stroke-width="1.75246"/>
<path d="M897.999 -217.32C1145.85 -206.441 928.509 11.9907 1117.9 138.688C1291.47 254.799 1591.71 -4.36744 1632.02 361.378C1659.62 611.784 1740.44 704.8 1945.77 758.51" stroke="#F2F2F2" stroke-width="1.75246"/>
<path d="M909.222 -230.779C1157.07 -219.899 939.732 -1.46817 1129.13 125.229C1302.69 241.34 1602.93 -17.8263 1643.24 347.919C1670.84 598.325 1751.67 691.342 1956.99 745.051" stroke="#F2F2F2" stroke-width="1.75246"/>
<path d="M920.446 -244.238C1168.3 -233.359 950.956 -14.9273 1140.35 111.77C1313.92 227.881 1614.15 -31.2854 1654.47 334.46C1682.07 584.866 1762.89 677.883 1968.22 731.592" stroke="#F2F2F2" stroke-width="1.75246"/>
<path d="M931.669 -257.697C1179.52 -246.818 962.179 -28.3863 1151.57 98.3108C1325.14 214.422 1625.38 -44.7445 1665.69 321.001C1693.29 571.407 1774.11 664.423 1979.44 718.133" stroke="#F2F2F2" stroke-width="1.75246"/>
<path d="M942.893 -271.156C1190.75 -260.277 973.403 -41.8453 1162.8 84.8518C1336.37 200.963 1636.6 -58.2034 1676.91 307.542C1704.52 557.948 1785.34 650.964 1990.66 704.674" stroke="#F2F2F2" stroke-width="1.75246"/>
<path d="M954.116 -284.615C1201.97 -273.736 984.626 -55.3043 1174.02 71.3928C1347.59 187.504 1647.82 -71.6625 1688.14 294.083C1715.74 544.489 1796.56 637.505 2001.89 691.215" stroke="#F2F2F2" stroke-width="1.75246"/>
<path d="M965.34 -298.074C1213.19 -287.195 995.85 -68.7636 1185.24 57.9336C1358.81 174.044 1659.05 -85.1217 1699.36 280.624C1726.96 531.03 1807.79 624.046 2013.11 677.756" stroke="#F2F2F2" stroke-width="1.75246"/>
<path d="M976.563 -311.533C1224.42 -300.654 1007.07 -82.2224 1196.47 44.4747C1370.04 160.585 1670.27 -98.5806 1710.59 267.165C1738.19 517.571 1819.01 610.587 2024.33 664.297" stroke="#F2F2F2" stroke-width="1.75246"/>
</g>
</g>
<defs>
<clipPath id="clip0_0_1">
<rect width="1920" height="5767" fill="white" transform="translate(0 -3848)"/>
</clipPath>
</defs>
</svg>
