<svg width="1901" height="2657" viewBox="0 0 1901 2657" fill="none" xmlns="http://www.w3.org/2000/svg">
<g opacity="0.2">
<path d="M717.316 968.189C965.169 979.068 747.826 1197.5 937.22 1324.2C1110.79 1440.31 1411.02 1181.14 1451.34 1546.89C1478.94 1797.29 1559.76 1890.31 1765.09 1944.02" stroke="#F2F2F2" stroke-width="1.75246"/>
<path d="M728.54 954.73C976.393 965.609 759.05 1184.04 948.443 1310.74C1122.01 1426.85 1422.25 1167.68 1462.56 1533.43C1490.16 1783.83 1570.99 1876.85 1776.31 1930.56" stroke="#F2F2F2" stroke-width="1.75246"/>
<path d="M739.763 941.271C987.616 952.15 770.273 1170.58 959.667 1297.28C1133.24 1413.39 1433.47 1154.22 1473.79 1519.97C1501.39 1770.37 1582.21 1863.39 1787.53 1917.1" stroke="#F2F2F2" stroke-width="1.75246"/>
<path d="M750.987 927.812C998.84 938.691 781.497 1157.12 970.89 1283.82C1144.46 1399.93 1444.7 1140.76 1485.01 1506.51C1512.61 1756.92 1593.43 1849.93 1798.76 1903.64" stroke="#F2F2F2" stroke-width="1.75246"/>
<path d="M762.21 914.353C1010.06 925.232 792.72 1143.66 982.114 1270.36C1155.68 1386.47 1455.92 1127.31 1496.23 1493.05C1523.83 1743.46 1604.66 1836.47 1809.98 1890.18" stroke="#F2F2F2" stroke-width="1.75246"/>
<path d="M773.434 900.894C1021.29 911.773 803.944 1130.2 993.338 1256.9C1166.91 1373.01 1467.14 1113.85 1507.46 1479.59C1535.06 1730 1615.88 1823.01 1821.2 1876.72" stroke="#F2F2F2" stroke-width="1.75246"/>
<path d="M784.657 887.435C1032.51 898.314 815.167 1116.75 1004.56 1243.44C1178.13 1359.55 1478.37 1100.39 1518.68 1466.13C1546.28 1716.54 1627.1 1809.55 1832.43 1863.26" stroke="#F2F2F2" stroke-width="1.75246"/>
<path d="M795.881 873.976C1043.73 884.855 826.391 1103.29 1015.78 1229.98C1189.35 1346.09 1489.59 1086.93 1529.9 1452.67C1557.5 1703.08 1638.33 1796.1 1843.65 1849.81" stroke="#F2F2F2" stroke-width="1.75246"/>
<path d="M807.104 860.516C1054.96 871.396 837.614 1089.83 1027.01 1216.52C1200.58 1332.63 1500.81 1073.47 1541.13 1439.21C1568.73 1689.62 1649.55 1782.64 1854.87 1836.35" stroke="#F2F2F2" stroke-width="1.75246"/>
<path d="M818.328 847.057C1066.18 857.937 848.838 1076.37 1038.23 1203.07C1211.8 1319.18 1512.04 1060.01 1552.35 1425.76C1579.95 1676.16 1660.77 1769.18 1866.1 1822.89" stroke="#F2F2F2" stroke-width="1.75246"/>
<path d="M829.551 833.598C1077.4 844.478 860.061 1062.91 1049.46 1189.61C1223.02 1305.72 1523.26 1046.55 1563.57 1412.3C1591.17 1662.7 1672 1755.72 1877.32 1809.43" stroke="#F2F2F2" stroke-width="1.75246"/>
<path d="M840.775 820.139C1088.63 831.019 871.285 1049.45 1060.68 1176.15C1234.25 1292.26 1534.48 1033.09 1574.8 1398.84C1602.4 1649.24 1683.22 1742.26 1888.54 1795.97" stroke="#F2F2F2" stroke-width="1.75246"/>
<path d="M851.999 806.68C1099.85 817.56 882.509 1035.99 1071.9 1162.69C1245.47 1278.8 1545.71 1019.63 1586.02 1385.38C1613.62 1635.78 1694.44 1728.8 1899.77 1782.51" stroke="#F2F2F2" stroke-width="1.75246"/>
<path d="M863.222 793.221C1111.07 804.101 893.732 1022.53 1083.13 1149.23C1256.69 1265.34 1556.93 1006.17 1597.24 1371.92C1624.84 1622.33 1705.67 1715.34 1910.99 1769.05" stroke="#F2F2F2" stroke-width="1.75246"/>
<path d="M874.446 779.762C1122.3 790.642 904.956 1009.07 1094.35 1135.77C1267.92 1251.88 1568.15 992.715 1608.47 1358.46C1636.07 1608.87 1716.89 1701.88 1922.22 1755.59" stroke="#F2F2F2" stroke-width="1.75246"/>
<path d="M885.669 766.303C1133.52 777.183 916.179 995.614 1105.57 1122.31C1279.14 1238.42 1579.38 979.256 1619.69 1345C1647.29 1595.41 1728.11 1688.42 1933.44 1742.13" stroke="#F2F2F2" stroke-width="1.75246"/>
<path d="M896.893 752.844C1144.75 763.724 927.403 982.155 1116.8 1108.85C1290.37 1224.96 1590.6 965.797 1630.91 1331.54C1658.52 1581.95 1739.34 1674.96 1944.66 1728.67" stroke="#F2F2F2" stroke-width="1.75246"/>
<path d="M908.116 739.385C1155.97 750.265 938.626 968.696 1128.02 1095.39C1301.59 1211.5 1601.82 952.338 1642.14 1318.08C1669.74 1568.49 1750.56 1661.51 1955.89 1715.22" stroke="#F2F2F2" stroke-width="1.75246"/>
<path d="M919.34 725.926C1167.19 736.805 949.85 955.237 1139.24 1081.93C1312.81 1198.04 1613.05 938.878 1653.36 1304.62C1680.96 1555.03 1761.79 1648.05 1967.11 1701.76" stroke="#F2F2F2" stroke-width="1.75246"/>
<path d="M930.563 712.467C1178.42 723.346 961.073 941.778 1150.47 1068.47C1324.04 1184.59 1624.27 925.42 1664.59 1291.16C1692.19 1541.57 1773.01 1634.59 1978.33 1688.3" stroke="#F2F2F2" stroke-width="1.75246"/>
</g>
</svg>
