<svg width="1920" height="338" viewBox="0 0 1920 338" fill="none" xmlns="http://www.w3.org/2000/svg">
<rect width="1920" height="338" fill="#F5F5F5"/>
<g clip-path="url(#clip0_0_1)">
<rect width="1920" height="5767" transform="translate(0 -2505)" fill="white"/>
<rect width="1920" height="338" fill="#F16A22"/>
<g opacity="0.2">
<path d="M763.316 -142.258C1011.17 -131.379 793.826 87.0524 983.22 213.75C1156.79 329.86 1457.02 70.6943 1497.34 436.44C1524.94 686.846 1605.76 779.862 1811.09 833.572" stroke="#F2F2F2" stroke-width="1.75246"/>
<path d="M774.54 -155.717C1022.39 -144.838 805.05 73.5934 994.443 200.291C1168.01 316.401 1468.25 57.2353 1508.56 422.981C1536.16 673.387 1616.99 766.403 1822.31 820.113" stroke="#F2F2F2" stroke-width="1.75246"/>
<path d="M785.763 -169.176C1033.62 -158.297 816.273 60.1344 1005.67 186.832C1179.24 302.942 1479.47 43.7763 1519.79 409.522C1547.39 659.928 1628.21 752.944 1833.53 806.654" stroke="#F2F2F2" stroke-width="1.75246"/>
<path d="M796.987 -182.635C1044.84 -171.756 827.497 46.6754 1016.89 173.373C1190.46 289.483 1490.7 30.3173 1531.01 396.063C1558.61 646.469 1639.43 739.485 1844.76 793.195" stroke="#F2F2F2" stroke-width="1.75246"/>
<path d="M808.21 -196.094C1056.06 -185.215 838.72 33.2164 1028.11 159.914C1201.68 276.024 1501.92 16.8583 1542.23 382.604C1569.83 633.01 1650.66 726.026 1855.98 779.736" stroke="#F2F2F2" stroke-width="1.75246"/>
<path d="M819.434 -209.553C1067.29 -198.674 849.944 19.7574 1039.34 146.455C1212.91 262.565 1513.14 3.39929 1553.46 369.145C1581.06 619.551 1661.88 712.567 1867.2 766.277" stroke="#F2F2F2" stroke-width="1.75246"/>
<path d="M830.657 -223.012C1078.51 -212.133 861.167 6.29831 1050.56 132.995C1224.13 249.106 1524.37 -10.0598 1564.68 355.685C1592.28 606.091 1673.1 699.108 1878.43 752.818" stroke="#F2F2F2" stroke-width="1.75246"/>
<path d="M841.881 -236.471C1089.73 -225.592 872.391 -7.16073 1061.78 119.536C1235.35 235.647 1535.59 -23.5189 1575.9 342.226C1603.5 592.632 1684.33 685.649 1889.65 739.359" stroke="#F2F2F2" stroke-width="1.75246"/>
<path d="M853.104 -249.93C1100.96 -239.051 883.614 -20.6198 1073.01 106.077C1246.58 222.188 1546.81 -36.9779 1587.13 328.767C1614.73 579.173 1695.55 672.19 1900.87 725.9" stroke="#F2F2F2" stroke-width="1.75246"/>
<path d="M864.328 -263.389C1112.18 -252.51 894.838 -34.0789 1084.23 92.6182C1257.8 208.729 1558.04 -50.437 1598.35 315.308C1625.95 565.714 1706.77 658.731 1912.1 712.441" stroke="#F2F2F2" stroke-width="1.75246"/>
<path d="M875.551 -276.848C1123.4 -265.969 906.061 -47.5378 1095.46 79.1593C1269.02 195.27 1569.26 -63.8959 1609.57 301.849C1637.17 552.255 1718 645.272 1923.32 698.982" stroke="#F2F2F2" stroke-width="1.75246"/>
<path d="M886.775 -290.307C1134.63 -279.428 917.285 -60.9969 1106.68 65.7002C1280.25 181.811 1580.48 -77.355 1620.8 288.39C1648.4 538.796 1729.22 631.813 1934.54 685.523" stroke="#F2F2F2" stroke-width="1.75246"/>
<path d="M897.999 -303.766C1145.85 -292.887 928.509 -74.4559 1117.9 52.2412C1291.47 168.352 1591.71 -90.814 1632.02 274.931C1659.62 525.337 1740.44 618.354 1945.77 672.064" stroke="#F2F2F2" stroke-width="1.75246"/>
<path d="M909.222 -317.225C1157.07 -306.346 939.732 -87.9148 1129.13 38.7824C1302.69 154.893 1602.93 -104.273 1643.24 261.472C1670.84 511.878 1751.67 604.895 1956.99 658.605" stroke="#F2F2F2" stroke-width="1.75246"/>
<path d="M920.446 -330.684C1168.3 -319.805 950.956 -101.374 1140.35 25.3233C1313.92 141.434 1614.15 -117.732 1654.47 248.013C1682.07 498.419 1762.89 591.436 1968.22 645.146" stroke="#F2F2F2" stroke-width="1.75246"/>
<path d="M931.669 -344.143C1179.52 -333.264 962.179 -114.833 1151.57 11.8642C1325.14 127.975 1625.38 -131.191 1665.69 234.554C1693.29 484.96 1774.11 577.977 1979.44 631.687" stroke="#F2F2F2" stroke-width="1.75246"/>
<path d="M942.893 -357.602C1190.75 -346.723 973.403 -128.292 1162.8 -1.59477C1336.37 114.516 1636.6 -144.65 1676.91 221.095C1704.52 471.501 1785.34 564.518 1990.66 618.228" stroke="#F2F2F2" stroke-width="1.75246"/>
<path d="M954.116 -371.061C1201.97 -360.182 984.626 -141.751 1174.02 -15.0538C1347.59 101.057 1647.82 -158.109 1688.14 207.636C1715.74 458.042 1796.56 551.059 2001.89 604.769" stroke="#F2F2F2" stroke-width="1.75246"/>
<path d="M965.34 -384.521C1213.19 -373.642 995.85 -155.21 1185.24 -28.513C1358.81 87.5977 1659.05 -171.568 1699.36 194.177C1726.96 444.583 1807.79 537.6 2013.11 591.309" stroke="#F2F2F2" stroke-width="1.75246"/>
<path d="M976.563 -397.98C1224.42 -387.1 1007.07 -168.669 1196.47 -41.972C1370.04 74.1388 1670.27 -185.027 1710.59 180.718C1738.19 431.124 1819.01 524.141 2024.33 577.85" stroke="#F2F2F2" stroke-width="1.75246"/>
</g>
</g>
<defs>
<clipPath id="clip0_0_1">
<rect width="1920" height="5767" fill="white" transform="translate(0 -2505)"/>
</clipPath>
</defs>
</svg>
