<svg width="128" height="98" viewBox="0 0 128 98" fill="none" xmlns="http://www.w3.org/2000/svg">
<path d="M53.9121 71.0221L62.9671 74.7957L49.8842 85.9672L53.9121 71.0221ZM114.638 19.6263L95.2518 71.2953C93.8583 74.1109 93.0702 76.5546 92.1884 77.4857C91.7483 77.9655 91.3908 78.1959 90.4883 78.3548C89.6001 78.5025 88.0795 78.4454 85.8551 77.867L57.6714 66.0933L114.638 19.6263ZM103.414 12.311L32.6416 55.613L7.98524 44.8705C7.10658 44.351 6.65693 43.8219 6.49327 43.458C6.31849 43.0767 6.31055 42.8558 6.47579 42.4093C6.81581 41.5164 8.53499 39.6765 12.6375 38.5849C12.6597 38.5849 12.6772 38.5769 12.7026 38.5769L101.347 12.9053L103.414 12.311ZM123.968 0.197335C123.928 0.197335 123.887 0.197335 123.844 0.197335C123.48 0.222757 123.124 0.30538 122.792 0.453146L99.6625 7.15031L11.074 32.7998C11.0661 32.7998 11.0661 32.8077 11.0597 32.8077L11.0089 32.8156C5.81164 34.2186 2.17626 36.7291 0.824115 40.32C0.150426 42.1297 0.209214 44.1937 1.00525 45.9367C1.80128 47.6876 3.22969 49.0811 5.01401 50.1059C5.11411 50.1647 5.21422 50.2124 5.31908 50.2553L30.4347 61.2043L36.196 78.9331C36.6758 80.5522 38.4045 81.469 40.0204 80.9478C41.6315 80.4187 42.4943 78.6773 41.9223 77.0837L36.4756 60.305L111.74 14.2511L49.9859 64.6157C49.9685 64.63 49.9605 64.6395 49.9446 64.6554C49.255 65.1845 48.8403 65.9932 48.7974 66.8592L41.533 93.7956C40.7704 96.6445 44.1579 98.7593 46.4046 96.851L46.4888 96.7843C46.5063 96.77 46.5221 96.7525 46.538 96.735L69.1781 77.3951L83.8388 83.5155C83.9627 83.5727 84.0867 83.6156 84.2138 83.6474C87.034 84.4005 89.384 84.6214 91.4845 84.267C93.585 83.9127 95.3757 82.8736 96.5896 81.577C99.0222 78.984 99.6435 75.9714 100.698 73.8646C100.741 73.7661 100.783 73.6739 100.816 73.5659L126.672 4.66529C126.672 4.65734 126.672 4.65734 126.672 4.64781C127.082 3.9058 127.147 3.02238 126.864 2.22158C126.764 1.94035 126.623 1.66865 126.442 1.42872C126.408 1.38582 126.373 1.3461 126.34 1.3032C126.315 1.26348 126.284 1.23011 126.249 1.19833C126.216 1.15702 126.175 1.11571 126.135 1.08235C126.102 1.04898 126.067 1.0172 126.041 0.982246C126.002 0.94888 125.957 0.917102 125.908 0.883735C125.363 0.429313 124.675 0.18939 123.968 0.197335Z" fill="white"/>
</svg>
